<svg width="148" height="26" viewBox="0 0 148 26" fill="none" xmlns="http://www.w3.org/2000/svg">
<path d="M9.547 20.408C4.171 20.408 0.331002 16.376 0.331002 10.688C0.331002 4.616 4.651 0.895998 9.787 0.895998C13.747 0.895998 17.059 3.128 18.283 6.656L15.499 7.784C14.491 5.36 12.523 3.752 9.787 3.752C6.331 3.752 3.499 6.344 3.499 10.76C3.499 15.704 7.123 17.552 10.075 17.552C13.075 17.552 15.307 15.704 15.715 12.968H10.315V10.472H18.739V20H16.387L16.243 16.76H16.123C14.803 19.088 12.619 20.408 9.547 20.408ZM25.9087 20.408C23.6287 20.408 21.4927 19.184 21.4927 16.64C21.4927 14.12 23.5567 13.112 25.9567 12.608C28.7887 12.008 29.9887 11.912 29.9887 10.664C29.9887 9.536 29.0287 8.6 27.4927 8.6C26.1487 8.6 25.0447 9.368 24.5887 10.928L21.9247 10.016C22.7407 7.304 25.1407 6.272 27.6367 6.272C30.6607 6.272 32.8927 7.784 32.8927 10.928V15.824C32.8927 18.032 33.0607 18.944 33.3247 20H30.4687C30.2767 19.328 30.2047 18.704 30.2047 17.936H30.1567C29.4127 19.424 27.8527 20.408 25.9087 20.408ZM24.6127 16.544C24.6127 17.6 25.4527 18.2 26.6767 18.2C28.7407 18.2 30.0127 16.376 30.0127 14.888V13.592C29.3167 13.952 28.2847 14.24 27.2527 14.456C26.0527 14.72 24.6127 15.248 24.6127 16.544ZM36.75 20V6.656H39.534V8.792H39.582C40.542 7.088 42.198 6.272 43.83 6.272C45.486 6.272 47.214 7.088 47.91 8.96H47.958C49.254 6.944 50.91 6.272 52.446 6.272C54.798 6.272 57.174 7.928 57.174 11.6V20H54.318V12.848C54.318 10.592 53.502 8.96 51.63 8.96C49.806 8.96 48.39 10.448 48.39 12.944V20H45.534V12.848C45.534 10.568 44.718 8.96 42.822 8.96C41.022 8.96 39.582 10.448 39.582 12.944V20H36.75ZM66.9374 20.408C63.0254 20.408 60.0974 17.624 60.0974 13.376C60.0974 9.272 62.8574 6.272 66.7454 6.272C69.8414 6.272 73.0814 8.216 73.0814 13.256V14.096H62.9774C63.1934 16.472 64.8494 17.864 66.9374 17.864C68.5934 17.864 69.8894 16.88 70.5134 15.344L73.1774 16.4C72.2654 18.752 69.9614 20.408 66.9374 20.408ZM63.1214 12.056H70.2014C70.0094 9.632 68.3774 8.72 66.7214 8.72C64.7534 8.72 63.4574 10.088 63.1214 12.056ZM76.2688 20V6.656H79.0528V8.912H79.1488C79.8208 7.448 81.2368 6.272 83.0848 6.272C83.5168 6.272 83.9488 6.32 84.4288 6.512V9.68C83.9248 9.488 83.2288 9.416 82.7968 9.416C79.7728 9.416 79.1008 12.272 79.1008 14.456V20H76.2688ZM93.1984 20.408C89.7904 20.408 86.8384 18.608 85.9024 14.888L88.7104 13.904C89.4544 16.664 91.3024 17.648 93.1744 17.648C94.9504 17.648 96.6784 16.784 96.6784 14.96C96.6784 13.112 94.9504 12.608 93.2704 12.104L91.5904 11.576C89.7424 11 86.5264 9.8 86.5264 6.272C86.5264 2.888 89.4544 0.895998 92.8864 0.895998C96.2464 0.895998 98.6224 2.84 99.2944 5.288L96.5344 6.416C95.9344 4.712 94.6624 3.632 92.7904 3.632C90.9904 3.632 89.6944 4.616 89.6944 6.032C89.6944 7.808 91.7584 8.528 93.1504 8.984L95.0944 9.608C96.8944 10.184 99.9184 11.072 99.9184 14.576C99.9184 17.96 97.1584 20.408 93.1984 20.408ZM102.967 20V0.8H105.799V8.792H105.847C106.855 7.04 108.415 6.272 110.119 6.272C112.543 6.272 114.847 7.832 114.847 11.6V20H111.991V12.848C111.991 10.64 111.175 8.96 109.135 8.96C107.215 8.96 105.799 10.472 105.799 12.944V20H102.967ZM124.6 20.408C120.568 20.408 117.76 17.504 117.76 13.352C117.76 9.2 120.568 6.272 124.6 6.272C128.632 6.272 131.416 9.2 131.416 13.352C131.416 17.504 128.632 20.408 124.6 20.408ZM120.736 13.352C120.736 15.896 122.32 17.72 124.6 17.72C126.88 17.72 128.464 15.896 128.464 13.352C128.464 10.784 126.88 8.96 124.6 8.96C122.32 8.96 120.736 10.784 120.736 13.352ZM134.517 25.28V6.656H137.301V8.888H137.349C138.525 7.064 140.085 6.272 141.909 6.272C145.509 6.272 147.813 9.368 147.813 13.28C147.813 17.696 144.981 20.408 141.717 20.408C139.629 20.408 138.165 19.304 137.349 17.984V25.28H134.517ZM137.301 13.352C137.301 15.92 138.957 17.72 141.117 17.72C143.301 17.72 144.861 15.872 144.861 13.352C144.861 10.808 143.277 8.96 141.117 8.96C138.957 8.96 137.301 10.76 137.301 13.352Z" fill="#585660"/>
</svg>
